<svg width="36" height="36" viewBox="0 0 36 36" fill="none" xmlns="http://www.w3.org/2000/svg">
    <path
        d="M0 18C0 8.05888 8.05888 0 18 0C27.9411 0 36 8.05888 36 18C36 27.9411 27.9411 36 18 36C8.05888 36 0 27.9411 0 18Z"
        fill="#E9EBEC" />
    <path
        d="M21.3333 25.5V23.8333C21.3333 22.9493 20.9821 22.1014 20.357 21.4763C19.7319 20.8512 18.8841 20.5 18 20.5H13C12.116 20.5 11.2681 20.8512 10.643 21.4763C10.0179 22.1014 9.66667 22.9493 9.66667 23.8333V25.5M26.3333 25.5V23.8333C26.3328 23.0948 26.087 22.3773 25.6345 21.7936C25.182 21.2099 24.5484 20.793 23.8333 20.6083M21.3333 10.6083C22.0504 10.7919 22.6859 11.2089 23.1397 11.7936C23.5935 12.3783 23.8399 13.0974 23.8399 13.8375C23.8399 14.5776 23.5935 15.2967 23.1397 15.8814C22.6859 16.4661 22.0504 16.8831 21.3333 17.0667M18.8333 13.8333C18.8333 15.6743 17.341 17.1667 15.5 17.1667C13.6591 17.1667 12.1667 15.6743 12.1667 13.8333C12.1667 11.9924 13.6591 10.5 15.5 10.5C17.341 10.5 18.8333 11.9924 18.8333 13.8333Z"
        stroke="#121416" stroke-width="1.5" stroke-linecap="round" stroke-linejoin="round" />
</svg>